<svg width="53" height="52" viewBox="0 0 53 52" fill="none" xmlns="http://www.w3.org/2000/svg">
<path d="M1.108 28.6245C-0.369335 27.175 -0.369335 24.825 1.108 23.3755L23.825 1.0871C25.3024 -0.362366 27.6976 -0.362366 29.175 1.0871L51.892 23.3755C53.3693 24.825 53.3693 27.175 51.892 28.6245L29.175 50.9129C27.6976 52.3624 25.3024 52.3624 23.825 50.9129L1.108 28.6245Z" fill="#EE513B"/>
<path d="M19.2104 5.68567L16.91 7.94273L22.8515 13.7721C22.6111 14.2781 22.4769 14.8423 22.4769 15.4373C22.4769 17.1266 23.5587 18.5679 25.0796 19.1308V33.3911C23.5587 33.954 22.4769 35.3953 22.4769 37.0846C22.4769 39.2641 24.2778 41.031 26.4993 41.031C28.7207 41.031 30.5216 39.2641 30.5216 37.0846C30.5216 35.5532 29.6325 34.2253 28.3331 33.5712V19.1503L34.0126 24.7227C33.7839 25.2183 33.6567 25.7686 33.6567 26.348C33.6567 28.5276 35.4576 30.2945 37.679 30.2945C39.9005 30.2945 41.7014 28.5276 41.7014 26.348C41.7014 24.1685 39.9005 22.4016 37.679 22.4016C37.2473 22.4016 36.8316 22.4683 36.4417 22.5918L30.3419 16.6071C30.4587 16.2376 30.5216 15.8446 30.5216 15.4373C30.5216 13.2577 28.7207 11.4908 26.4993 11.4908C26.0842 11.4908 25.6838 11.5526 25.3069 11.6671L19.2104 5.68567Z" fill="white"/>
</svg>
