<svg width="53" height="53" viewBox="0 0 53 53" fill="none" xmlns="http://www.w3.org/2000/svg">
<g clip-path="url(#clip0_8_828)">
<path fill-rule="evenodd" clip-rule="evenodd" d="M26.1233 0C40.5512 0 52.2466 11.9904 52.2466 26.7841C52.2466 38.6153 44.7701 48.652 34.3966 52.1969C33.0721 52.4607 32.6019 51.6243 32.6019 50.9111C32.6019 50.0282 32.6332 47.1442 32.6332 43.5601C32.6332 41.0627 31.7973 39.4328 30.8595 38.602C36.6771 37.9385 42.79 35.6734 42.79 25.386C42.79 22.4602 41.7764 20.0727 40.0993 18.197C40.371 17.5204 41.267 14.7961 39.8433 11.1075C39.8433 11.1075 37.6541 10.3898 32.6672 13.8538C30.58 13.2608 28.3438 12.9624 26.1233 12.952C23.9028 12.9624 21.6693 13.2608 19.5847 13.8538C14.5925 10.3898 12.3981 11.1075 12.3981 11.1075C10.9796 14.7961 11.8757 17.5204 12.1447 18.197C10.4755 20.0727 9.45404 22.4602 9.45404 25.386C9.45404 35.6473 15.5538 37.9471 21.3558 38.6237C20.6087 39.2925 19.9321 40.4722 19.697 42.2042C18.208 42.8886 14.4253 44.0732 12.0951 39.9796C12.0951 39.9796 10.7132 37.4062 8.09039 37.2181C8.09039 37.2181 5.54337 37.1842 7.91275 38.8457C7.91275 38.8457 9.62383 39.6686 10.8124 42.7642C10.8124 42.7642 12.3459 47.5446 19.6134 45.925C19.6265 48.1638 19.65 50.2737 19.65 50.9111C19.65 51.6191 19.1693 52.4476 17.8657 52.1994C7.48432 48.6597 0 38.6179 0 26.7841C0 11.9904 11.698 0 26.1233 0Z" fill="black"/>
</g>
<defs>
<clipPath id="clip0_8_828">
<rect width="52.2466" height="52.2466" fill="white"/>
</clipPath>
</defs>
</svg>
