<svg width="53" height="53" viewBox="0 0 53 53" fill="none" xmlns="http://www.w3.org/2000/svg">
<g clip-path="url(#clip0_8_825)">
<path d="M0 0H52.2466V52.2466H0V0Z" fill="#F7DF1E"/>
<path d="M13.7376 43.661L17.7357 41.2413C18.5072 42.6089 19.2088 43.7661 20.8919 43.7661C22.5053 43.7661 23.5227 43.1351 23.5227 40.6803V23.9863H28.4324V40.7497C28.4324 45.835 25.4515 48.1497 21.1024 48.1497C17.1747 48.1497 14.8948 46.1156 13.7374 43.6606M31.0992 43.1349L35.0969 40.8203C36.1494 42.5389 37.5172 43.8014 39.9369 43.8014C41.9714 43.8014 43.2686 42.7842 43.2686 41.3813C43.2686 39.698 41.9359 39.1017 39.6914 38.12L38.4642 37.5935C34.9218 36.0859 32.5721 34.1919 32.5721 30.1938C32.5721 26.5113 35.3777 23.7054 39.7618 23.7054C42.8831 23.7054 45.1277 24.7928 46.7408 27.6335L42.9178 30.0887C42.0759 28.5807 41.1645 27.9846 39.7616 27.9846C38.3235 27.9846 37.4117 28.8964 37.4117 30.0887C37.4117 31.5616 38.3236 32.1582 40.4277 33.07L41.6551 33.596C45.8287 35.3848 48.1784 37.2083 48.1784 41.3113C48.1784 45.7307 44.7064 48.1503 40.042 48.1503C35.4828 48.1503 32.5368 45.976 31.099 43.1351" fill="black"/>
</g>
<defs>
<clipPath id="clip0_8_825">
<rect width="52.2466" height="52.2466" rx="3.7426" fill="white"/>
</clipPath>
</defs>
</svg>
